<svg width="32" height="34" viewBox="0 0 32 34" fill="none" xmlns="http://www.w3.org/2000/svg">
<path d="M25.1305 33L16 33L6.86954 33M25.1305 33H30C30.5523 33 31 32.5523 31 32V27.88C31 26.1399 29.7946 23.5125 25.1305 22.0082M25.1305 33C24.7689 32.0126 24.3273 30.1309 24.272 27.88C24.2275 26.0703 24.4329 24.022 25.1305 22.0082M25.1305 22.0082C22.9332 21.2995 19.9682 20.8401 16 20.8401C12.0318 20.8401 9.06684 21.2995 6.86954 22.0082M22.5218 8.68024C22.6503 9.56307 22.68 10.7069 22.4964 11.8802M22.4964 11.8802C22.059 14.6763 20.4101 17.6401 16 17.6401C11.5899 17.6401 9.94104 14.6763 9.50357 11.8802M22.4964 11.8802C26.4179 10.8136 31.9124 8.17091 22.5218 6.12026M22.5218 6.12026C21.7249 5.94625 19.2609 5.48017 16 5.48027C12.7391 5.48017 10.2751 5.94625 9.47823 6.12026M22.5218 6.12026C22.9566 4.41351 22.2609 1 16.0001 1C9.73922 1 9.04344 4.41351 9.47823 6.12026M6.86954 33H2C1.44772 33 1 32.5523 1 32V27.88C1 26.1399 2.20541 23.5125 6.86954 22.0082M6.86954 33C7.23105 32.0126 7.67271 30.1309 7.728 27.88C7.77245 26.0703 7.56713 24.022 6.86954 22.0082M9.47823 8.68024C9.34972 9.56307 9.31999 10.7069 9.50357 11.8802M9.50357 11.8802C5.58209 10.8136 0.0875645 8.17091 9.47823 6.12026" stroke="#D7CDC4" stroke-width="2" stroke-linecap="round"/>
</svg>
